<svg xmlns="http://www.w3.org/2000/svg" viewBox="2.5 2.5 27 27" role="img" aria-label="solstone alert mark">
  <title>solstone alert mark</title>
  <path fill="#F5C740" d="M16.0 2.5 L18.6 7.3 A9.1 9.1 0 0 0 13.4 7.3 Z M23.9 5.1 L23.2 10.5 A9.1 9.1 0 0 0 19.0 7.4 Z M28.8 11.8 L25.1 15.8 A9.1 9.1 0 0 0 23.5 10.9 Z M28.8 20.2 L23.5 21.1 A9.1 9.1 0 0 0 25.1 16.2 Z M23.9 26.9 L19.0 24.6 A9.1 9.1 0 0 0 23.2 21.5 Z M16.0 29.5 L13.4 24.7 A9.1 9.1 0 0 0 18.6 24.7 Z M8.1 26.9 L8.8 21.5 A9.1 9.1 0 0 0 13.0 24.6 Z M3.2 20.2 L6.9 16.2 A9.1 9.1 0 0 0 8.5 21.1 Z M3.2 11.8 L8.5 10.9 A9.1 9.1 0 0 0 6.9 15.8 Z M8.1 5.1 L13.0 7.4 A9.1 9.1 0 0 0 8.8 10.5 Z"/>
  <circle cx="16" cy="16" r="6.5" fill="none" stroke="#E8923A" stroke-width="1.7"/>
  <path fill="#F5C740" d="M15.0 9.8 H17.0 L16.7 18.0 H15.3 Z"/>
  <circle cx="16" cy="21.1" r="1.2" fill="#F5C740"/>
</svg>
